<svg xmlns="http://www.w3.org/2000/svg" width="24000" height="3500" viewBox="0 0 24000 3500">
<rect width="100%" height="100%" fill="white"/>
<text x="12000.0" y="54" text-anchor="middle" font-family="sans-serif" font-size="34">GreenQUIC server RAPL power distribution — whole run</text>
<rect x="150.00" y="3334.32" width="236.70" height="15.68" fill="#1f77b4"/>
<rect x="387.70" y="3344.77" width="236.70" height="5.23" fill="#1f77b4"/>
<rect x="625.40" y="3344.77" width="236.70" height="5.23" fill="#1f77b4"/>
<rect x="863.10" y="3329.10" width="236.70" height="20.90" fill="#1f77b4"/>
<rect x="1100.80" y="3339.55" width="236.70" height="10.45" fill="#1f77b4"/>
<rect x="1338.50" y="3318.65" width="236.70" height="31.35" fill="#1f77b4"/>
<rect x="1576.20" y="3271.61" width="236.70" height="78.39" fill="#1f77b4"/>
<rect x="1813.90" y="3255.94" width="236.70" height="94.06" fill="#1f77b4"/>
<rect x="2051.60" y="3193.23" width="236.70" height="156.77" fill="#1f77b4"/>
<rect x="2289.30" y="3088.71" width="236.70" height="261.29" fill="#1f77b4"/>
<rect x="2527.00" y="3057.35" width="236.70" height="292.65" fill="#1f77b4"/>
<rect x="2764.70" y="3052.13" width="236.70" height="297.87" fill="#1f77b4"/>
<rect x="3002.40" y="3041.68" width="236.70" height="308.32" fill="#1f77b4"/>
<rect x="3240.10" y="2916.26" width="236.70" height="433.74" fill="#1f77b4"/>
<rect x="3477.80" y="2942.39" width="236.70" height="407.61" fill="#1f77b4"/>
<rect x="3715.50" y="3036.45" width="236.70" height="313.55" fill="#1f77b4"/>
<rect x="3953.20" y="3062.58" width="236.70" height="287.42" fill="#1f77b4"/>
<rect x="4190.90" y="3109.61" width="236.70" height="240.39" fill="#1f77b4"/>
<rect x="4428.60" y="3120.06" width="236.70" height="229.94" fill="#1f77b4"/>
<rect x="4666.30" y="3073.03" width="236.70" height="276.97" fill="#1f77b4"/>
<rect x="4904.00" y="2999.87" width="236.70" height="350.13" fill="#1f77b4"/>
<rect x="5141.70" y="2973.74" width="236.70" height="376.26" fill="#1f77b4"/>
<rect x="5379.40" y="2879.68" width="236.70" height="470.32" fill="#1f77b4"/>
<rect x="5617.10" y="2785.61" width="236.70" height="564.39" fill="#1f77b4"/>
<rect x="5854.80" y="2790.84" width="236.70" height="559.16" fill="#1f77b4"/>
<rect x="6092.50" y="2769.94" width="236.70" height="580.06" fill="#1f77b4"/>
<rect x="6330.20" y="2613.16" width="236.70" height="736.84" fill="#1f77b4"/>
<rect x="6567.90" y="2555.68" width="236.70" height="794.32" fill="#1f77b4"/>
<rect x="6805.60" y="2414.58" width="236.70" height="935.42" fill="#1f77b4"/>
<rect x="7043.30" y="2074.90" width="236.70" height="1275.10" fill="#1f77b4"/>
<rect x="7281.00" y="1536.65" width="236.70" height="1813.35" fill="#1f77b4"/>
<rect x="7518.70" y="1186.52" width="236.70" height="2163.48" fill="#1f77b4"/>
<rect x="7756.40" y="862.52" width="236.70" height="2487.48" fill="#1f77b4"/>
<rect x="7994.10" y="454.90" width="236.70" height="2895.10" fill="#1f77b4"/>
<rect x="8231.80" y="402.65" width="236.70" height="2947.35" fill="#1f77b4"/>
<rect x="8469.50" y="230.19" width="236.70" height="3119.81" fill="#1f77b4"/>
<rect x="8707.20" y="277.23" width="236.70" height="3072.77" fill="#1f77b4"/>
<rect x="8944.90" y="998.39" width="236.70" height="2351.61" fill="#1f77b4"/>
<rect x="9182.60" y="1113.35" width="236.70" height="2236.65" fill="#1f77b4"/>
<rect x="9420.30" y="1400.77" width="236.70" height="1949.23" fill="#1f77b4"/>
<rect x="9658.00" y="1672.52" width="236.70" height="1677.48" fill="#1f77b4"/>
<rect x="9895.70" y="1358.97" width="236.70" height="1991.03" fill="#1f77b4"/>
<rect x="10133.40" y="1066.32" width="236.70" height="2283.68" fill="#1f77b4"/>
<rect x="10371.10" y="1118.58" width="236.70" height="2231.42" fill="#1f77b4"/>
<rect x="10608.80" y="721.42" width="236.70" height="2628.58" fill="#1f77b4"/>
<rect x="10846.50" y="376.52" width="236.70" height="2973.48" fill="#1f77b4"/>
<rect x="11084.20" y="110.00" width="236.70" height="3240.00" fill="#1f77b4"/>
<rect x="11321.90" y="272.00" width="236.70" height="3078.00" fill="#1f77b4"/>
<rect x="11559.60" y="292.90" width="236.70" height="3057.10" fill="#1f77b4"/>
<rect x="11797.30" y="700.52" width="236.70" height="2649.48" fill="#1f77b4"/>
<rect x="12035.00" y="1458.26" width="236.70" height="1891.74" fill="#1f77b4"/>
<rect x="12272.70" y="1813.61" width="236.70" height="1536.39" fill="#1f77b4"/>
<rect x="12510.40" y="2252.58" width="236.70" height="1097.42" fill="#1f77b4"/>
<rect x="12748.10" y="2388.45" width="236.70" height="961.55" fill="#1f77b4"/>
<rect x="12985.80" y="2540.00" width="236.70" height="810.00" fill="#1f77b4"/>
<rect x="13223.50" y="2743.81" width="236.70" height="606.19" fill="#1f77b4"/>
<rect x="13461.20" y="2931.94" width="236.70" height="418.06" fill="#1f77b4"/>
<rect x="13698.90" y="2968.52" width="236.70" height="381.48" fill="#1f77b4"/>
<rect x="13936.60" y="2999.87" width="236.70" height="350.13" fill="#1f77b4"/>
<rect x="14174.30" y="3026.00" width="236.70" height="324.00" fill="#1f77b4"/>
<rect x="14412.00" y="3135.74" width="236.70" height="214.26" fill="#1f77b4"/>
<rect x="14649.70" y="3130.52" width="236.70" height="219.48" fill="#1f77b4"/>
<rect x="14887.40" y="3188.00" width="236.70" height="162.00" fill="#1f77b4"/>
<rect x="15125.10" y="3229.81" width="236.70" height="120.19" fill="#1f77b4"/>
<rect x="15362.80" y="3177.55" width="236.70" height="172.45" fill="#1f77b4"/>
<rect x="15600.50" y="3177.55" width="236.70" height="172.45" fill="#1f77b4"/>
<rect x="15838.20" y="3161.87" width="236.70" height="188.13" fill="#1f77b4"/>
<rect x="16075.90" y="3130.52" width="236.70" height="219.48" fill="#1f77b4"/>
<rect x="16313.60" y="3078.26" width="236.70" height="271.74" fill="#1f77b4"/>
<rect x="16551.30" y="3057.35" width="236.70" height="292.65" fill="#1f77b4"/>
<rect x="16789.00" y="3151.42" width="236.70" height="198.58" fill="#1f77b4"/>
<rect x="17026.70" y="3083.48" width="236.70" height="266.52" fill="#1f77b4"/>
<rect x="17264.40" y="3093.94" width="236.70" height="256.06" fill="#1f77b4"/>
<rect x="17502.10" y="3188.00" width="236.70" height="162.00" fill="#1f77b4"/>
<rect x="17739.80" y="3245.48" width="236.70" height="104.52" fill="#1f77b4"/>
<rect x="17977.50" y="3266.39" width="236.70" height="83.61" fill="#1f77b4"/>
<rect x="18215.20" y="3318.65" width="236.70" height="31.35" fill="#1f77b4"/>
<rect x="18452.90" y="3308.19" width="236.70" height="41.81" fill="#1f77b4"/>
<rect x="18690.60" y="3318.65" width="236.70" height="31.35" fill="#1f77b4"/>
<rect x="18928.30" y="3334.32" width="236.70" height="15.68" fill="#1f77b4"/>
<rect x="19166.00" y="3334.32" width="236.70" height="15.68" fill="#1f77b4"/>
<rect x="19403.70" y="3350.00" width="236.70" height="0.00" fill="#1f77b4"/>
<rect x="19641.40" y="3339.55" width="236.70" height="10.45" fill="#1f77b4"/>
<rect x="19879.10" y="3350.00" width="236.70" height="0.00" fill="#1f77b4"/>
<rect x="20116.80" y="3350.00" width="236.70" height="0.00" fill="#1f77b4"/>
<rect x="20354.50" y="3350.00" width="236.70" height="0.00" fill="#1f77b4"/>
<rect x="20592.20" y="3350.00" width="236.70" height="0.00" fill="#1f77b4"/>
<rect x="20829.90" y="3350.00" width="236.70" height="0.00" fill="#1f77b4"/>
<rect x="21067.60" y="3350.00" width="236.70" height="0.00" fill="#1f77b4"/>
<rect x="21305.30" y="3350.00" width="236.70" height="0.00" fill="#1f77b4"/>
<rect x="21543.00" y="3350.00" width="236.70" height="0.00" fill="#1f77b4"/>
<rect x="21780.70" y="3350.00" width="236.70" height="0.00" fill="#1f77b4"/>
<rect x="22018.40" y="3344.77" width="236.70" height="5.23" fill="#1f77b4"/>
<rect x="22256.10" y="3350.00" width="236.70" height="0.00" fill="#1f77b4"/>
<rect x="22493.80" y="3350.00" width="236.70" height="0.00" fill="#1f77b4"/>
<rect x="22731.50" y="3344.77" width="236.70" height="5.23" fill="#1f77b4"/>
<rect x="22969.20" y="3350.00" width="236.70" height="0.00" fill="#1f77b4"/>
<rect x="23206.90" y="3350.00" width="236.70" height="0.00" fill="#1f77b4"/>
<rect x="23444.60" y="3350.00" width="236.70" height="0.00" fill="#1f77b4"/>
<rect x="23682.30" y="3344.77" width="236.70" height="5.23" fill="#1f77b4"/>
<line x1="150" y1="110" x2="150" y2="3350" stroke="black" stroke-width="2"/>
<line x1="150" y1="3350" x2="23920" y2="3350" stroke="black" stroke-width="2"/>
<text x="150" y="3398" text-anchor="middle" font-family="monospace" font-size="20">92.98</text>
<text x="23920" y="3398" text-anchor="middle" font-family="monospace" font-size="20">169.09</text>
<text x="12000.0" y="3458" text-anchor="middle" font-family="sans-serif" font-size="24">Smoothed package + DRAM power [W]</text>
<text x="42" y="1750.0" text-anchor="middle" font-family="sans-serif" font-size="24" transform="rotate(-90 42 1750.0)">Sample count</text>
</svg>
