<svg xmlns="http://www.w3.org/2000/svg" width="24000" height="3500" viewBox="0 0 24000 3500">
<rect width="100%" height="100%" fill="white"/>
<text x="12000.0" y="48" text-anchor="middle" font-family="sans-serif" font-size="32">GreenQUIC client whole-system power over time</text>
<line x1="130.00" y1="100" x2="130.00" y2="3360" stroke="#a8a8a8" stroke-width="1"/>
<line x1="130.00" y1="3360" x2="130.00" y2="3376" stroke="black"/>
<text x="130.00" y="3408" text-anchor="middle" font-family="monospace" font-size="18">0</text>
<line x1="483.82" y1="100" x2="483.82" y2="3360" stroke="#a8a8a8" stroke-width="1"/>
<line x1="483.82" y1="3360" x2="483.82" y2="3376" stroke="black"/>
<text x="483.82" y="3408" text-anchor="middle" font-family="monospace" font-size="18">1000</text>
<line x1="837.65" y1="100" x2="837.65" y2="3360" stroke="#a8a8a8" stroke-width="1"/>
<line x1="837.65" y1="3360" x2="837.65" y2="3376" stroke="black"/>
<text x="837.65" y="3408" text-anchor="middle" font-family="monospace" font-size="18">2000</text>
<line x1="1191.47" y1="100" x2="1191.47" y2="3360" stroke="#a8a8a8" stroke-width="1"/>
<line x1="1191.47" y1="3360" x2="1191.47" y2="3376" stroke="black"/>
<text x="1191.47" y="3408" text-anchor="middle" font-family="monospace" font-size="18">3000</text>
<line x1="1545.30" y1="100" x2="1545.30" y2="3360" stroke="#a8a8a8" stroke-width="1"/>
<line x1="1545.30" y1="3360" x2="1545.30" y2="3376" stroke="black"/>
<text x="1545.30" y="3408" text-anchor="middle" font-family="monospace" font-size="18">4000</text>
<line x1="1899.12" y1="100" x2="1899.12" y2="3360" stroke="#a8a8a8" stroke-width="1"/>
<line x1="1899.12" y1="3360" x2="1899.12" y2="3376" stroke="black"/>
<text x="1899.12" y="3408" text-anchor="middle" font-family="monospace" font-size="18">5000</text>
<line x1="2252.94" y1="100" x2="2252.94" y2="3360" stroke="#a8a8a8" stroke-width="1"/>
<line x1="2252.94" y1="3360" x2="2252.94" y2="3376" stroke="black"/>
<text x="2252.94" y="3408" text-anchor="middle" font-family="monospace" font-size="18">6000</text>
<line x1="2606.77" y1="100" x2="2606.77" y2="3360" stroke="#a8a8a8" stroke-width="1"/>
<line x1="2606.77" y1="3360" x2="2606.77" y2="3376" stroke="black"/>
<text x="2606.77" y="3408" text-anchor="middle" font-family="monospace" font-size="18">7000</text>
<line x1="2960.59" y1="100" x2="2960.59" y2="3360" stroke="#a8a8a8" stroke-width="1"/>
<line x1="2960.59" y1="3360" x2="2960.59" y2="3376" stroke="black"/>
<text x="2960.59" y="3408" text-anchor="middle" font-family="monospace" font-size="18">8000</text>
<line x1="3314.41" y1="100" x2="3314.41" y2="3360" stroke="#a8a8a8" stroke-width="1"/>
<line x1="3314.41" y1="3360" x2="3314.41" y2="3376" stroke="black"/>
<text x="3314.41" y="3408" text-anchor="middle" font-family="monospace" font-size="18">9000</text>
<line x1="3668.24" y1="100" x2="3668.24" y2="3360" stroke="#a8a8a8" stroke-width="1"/>
<line x1="3668.24" y1="3360" x2="3668.24" y2="3376" stroke="black"/>
<text x="3668.24" y="3408" text-anchor="middle" font-family="monospace" font-size="18">10000</text>
<line x1="4022.06" y1="100" x2="4022.06" y2="3360" stroke="#a8a8a8" stroke-width="1"/>
<line x1="4022.06" y1="3360" x2="4022.06" y2="3376" stroke="black"/>
<text x="4022.06" y="3408" text-anchor="middle" font-family="monospace" font-size="18">11000</text>
<line x1="4375.89" y1="100" x2="4375.89" y2="3360" stroke="#a8a8a8" stroke-width="1"/>
<line x1="4375.89" y1="3360" x2="4375.89" y2="3376" stroke="black"/>
<text x="4375.89" y="3408" text-anchor="middle" font-family="monospace" font-size="18">12000</text>
<line x1="4729.71" y1="100" x2="4729.71" y2="3360" stroke="#a8a8a8" stroke-width="1"/>
<line x1="4729.71" y1="3360" x2="4729.71" y2="3376" stroke="black"/>
<text x="4729.71" y="3408" text-anchor="middle" font-family="monospace" font-size="18">13000</text>
<line x1="5083.53" y1="100" x2="5083.53" y2="3360" stroke="#a8a8a8" stroke-width="1"/>
<line x1="5083.53" y1="3360" x2="5083.53" y2="3376" stroke="black"/>
<text x="5083.53" y="3408" text-anchor="middle" font-family="monospace" font-size="18">14000</text>
<line x1="5437.36" y1="100" x2="5437.36" y2="3360" stroke="#a8a8a8" stroke-width="1"/>
<line x1="5437.36" y1="3360" x2="5437.36" y2="3376" stroke="black"/>
<text x="5437.36" y="3408" text-anchor="middle" font-family="monospace" font-size="18">15000</text>
<line x1="5791.18" y1="100" x2="5791.18" y2="3360" stroke="#a8a8a8" stroke-width="1"/>
<line x1="5791.18" y1="3360" x2="5791.18" y2="3376" stroke="black"/>
<text x="5791.18" y="3408" text-anchor="middle" font-family="monospace" font-size="18">16000</text>
<line x1="6145.00" y1="100" x2="6145.00" y2="3360" stroke="#a8a8a8" stroke-width="1"/>
<line x1="6145.00" y1="3360" x2="6145.00" y2="3376" stroke="black"/>
<text x="6145.00" y="3408" text-anchor="middle" font-family="monospace" font-size="18">17000</text>
<line x1="6498.83" y1="100" x2="6498.83" y2="3360" stroke="#a8a8a8" stroke-width="1"/>
<line x1="6498.83" y1="3360" x2="6498.83" y2="3376" stroke="black"/>
<text x="6498.83" y="3408" text-anchor="middle" font-family="monospace" font-size="18">18000</text>
<line x1="6852.65" y1="100" x2="6852.65" y2="3360" stroke="#a8a8a8" stroke-width="1"/>
<line x1="6852.65" y1="3360" x2="6852.65" y2="3376" stroke="black"/>
<text x="6852.65" y="3408" text-anchor="middle" font-family="monospace" font-size="18">19000</text>
<line x1="7206.48" y1="100" x2="7206.48" y2="3360" stroke="#a8a8a8" stroke-width="1"/>
<line x1="7206.48" y1="3360" x2="7206.48" y2="3376" stroke="black"/>
<text x="7206.48" y="3408" text-anchor="middle" font-family="monospace" font-size="18">20000</text>
<line x1="7560.30" y1="100" x2="7560.30" y2="3360" stroke="#a8a8a8" stroke-width="1"/>
<line x1="7560.30" y1="3360" x2="7560.30" y2="3376" stroke="black"/>
<text x="7560.30" y="3408" text-anchor="middle" font-family="monospace" font-size="18">21000</text>
<line x1="7914.12" y1="100" x2="7914.12" y2="3360" stroke="#a8a8a8" stroke-width="1"/>
<line x1="7914.12" y1="3360" x2="7914.12" y2="3376" stroke="black"/>
<text x="7914.12" y="3408" text-anchor="middle" font-family="monospace" font-size="18">22000</text>
<line x1="8267.95" y1="100" x2="8267.95" y2="3360" stroke="#a8a8a8" stroke-width="1"/>
<line x1="8267.95" y1="3360" x2="8267.95" y2="3376" stroke="black"/>
<text x="8267.95" y="3408" text-anchor="middle" font-family="monospace" font-size="18">23000</text>
<line x1="8621.77" y1="100" x2="8621.77" y2="3360" stroke="#a8a8a8" stroke-width="1"/>
<line x1="8621.77" y1="3360" x2="8621.77" y2="3376" stroke="black"/>
<text x="8621.77" y="3408" text-anchor="middle" font-family="monospace" font-size="18">24000</text>
<line x1="8975.60" y1="100" x2="8975.60" y2="3360" stroke="#a8a8a8" stroke-width="1"/>
<line x1="8975.60" y1="3360" x2="8975.60" y2="3376" stroke="black"/>
<text x="8975.60" y="3408" text-anchor="middle" font-family="monospace" font-size="18">25000</text>
<line x1="9329.42" y1="100" x2="9329.42" y2="3360" stroke="#a8a8a8" stroke-width="1"/>
<line x1="9329.42" y1="3360" x2="9329.42" y2="3376" stroke="black"/>
<text x="9329.42" y="3408" text-anchor="middle" font-family="monospace" font-size="18">26000</text>
<line x1="9683.24" y1="100" x2="9683.24" y2="3360" stroke="#a8a8a8" stroke-width="1"/>
<line x1="9683.24" y1="3360" x2="9683.24" y2="3376" stroke="black"/>
<text x="9683.24" y="3408" text-anchor="middle" font-family="monospace" font-size="18">27000</text>
<line x1="10037.07" y1="100" x2="10037.07" y2="3360" stroke="#a8a8a8" stroke-width="1"/>
<line x1="10037.07" y1="3360" x2="10037.07" y2="3376" stroke="black"/>
<text x="10037.07" y="3408" text-anchor="middle" font-family="monospace" font-size="18">28000</text>
<line x1="10390.89" y1="100" x2="10390.89" y2="3360" stroke="#a8a8a8" stroke-width="1"/>
<line x1="10390.89" y1="3360" x2="10390.89" y2="3376" stroke="black"/>
<text x="10390.89" y="3408" text-anchor="middle" font-family="monospace" font-size="18">29000</text>
<line x1="10744.71" y1="100" x2="10744.71" y2="3360" stroke="#a8a8a8" stroke-width="1"/>
<line x1="10744.71" y1="3360" x2="10744.71" y2="3376" stroke="black"/>
<text x="10744.71" y="3408" text-anchor="middle" font-family="monospace" font-size="18">30000</text>
<line x1="11098.54" y1="100" x2="11098.54" y2="3360" stroke="#a8a8a8" stroke-width="1"/>
<line x1="11098.54" y1="3360" x2="11098.54" y2="3376" stroke="black"/>
<text x="11098.54" y="3408" text-anchor="middle" font-family="monospace" font-size="18">31000</text>
<line x1="11452.36" y1="100" x2="11452.36" y2="3360" stroke="#a8a8a8" stroke-width="1"/>
<line x1="11452.36" y1="3360" x2="11452.36" y2="3376" stroke="black"/>
<text x="11452.36" y="3408" text-anchor="middle" font-family="monospace" font-size="18">32000</text>
<line x1="11806.19" y1="100" x2="11806.19" y2="3360" stroke="#a8a8a8" stroke-width="1"/>
<line x1="11806.19" y1="3360" x2="11806.19" y2="3376" stroke="black"/>
<text x="11806.19" y="3408" text-anchor="middle" font-family="monospace" font-size="18">33000</text>
<line x1="12160.01" y1="100" x2="12160.01" y2="3360" stroke="#a8a8a8" stroke-width="1"/>
<line x1="12160.01" y1="3360" x2="12160.01" y2="3376" stroke="black"/>
<text x="12160.01" y="3408" text-anchor="middle" font-family="monospace" font-size="18">34000</text>
<line x1="12513.83" y1="100" x2="12513.83" y2="3360" stroke="#a8a8a8" stroke-width="1"/>
<line x1="12513.83" y1="3360" x2="12513.83" y2="3376" stroke="black"/>
<text x="12513.83" y="3408" text-anchor="middle" font-family="monospace" font-size="18">35000</text>
<line x1="12867.66" y1="100" x2="12867.66" y2="3360" stroke="#a8a8a8" stroke-width="1"/>
<line x1="12867.66" y1="3360" x2="12867.66" y2="3376" stroke="black"/>
<text x="12867.66" y="3408" text-anchor="middle" font-family="monospace" font-size="18">36000</text>
<line x1="13221.48" y1="100" x2="13221.48" y2="3360" stroke="#a8a8a8" stroke-width="1"/>
<line x1="13221.48" y1="3360" x2="13221.48" y2="3376" stroke="black"/>
<text x="13221.48" y="3408" text-anchor="middle" font-family="monospace" font-size="18">37000</text>
<line x1="13575.30" y1="100" x2="13575.30" y2="3360" stroke="#a8a8a8" stroke-width="1"/>
<line x1="13575.30" y1="3360" x2="13575.30" y2="3376" stroke="black"/>
<text x="13575.30" y="3408" text-anchor="middle" font-family="monospace" font-size="18">38000</text>
<line x1="13929.13" y1="100" x2="13929.13" y2="3360" stroke="#a8a8a8" stroke-width="1"/>
<line x1="13929.13" y1="3360" x2="13929.13" y2="3376" stroke="black"/>
<text x="13929.13" y="3408" text-anchor="middle" font-family="monospace" font-size="18">39000</text>
<line x1="14282.95" y1="100" x2="14282.95" y2="3360" stroke="#a8a8a8" stroke-width="1"/>
<line x1="14282.95" y1="3360" x2="14282.95" y2="3376" stroke="black"/>
<text x="14282.95" y="3408" text-anchor="middle" font-family="monospace" font-size="18">40000</text>
<line x1="14636.78" y1="100" x2="14636.78" y2="3360" stroke="#a8a8a8" stroke-width="1"/>
<line x1="14636.78" y1="3360" x2="14636.78" y2="3376" stroke="black"/>
<text x="14636.78" y="3408" text-anchor="middle" font-family="monospace" font-size="18">41000</text>
<line x1="14990.60" y1="100" x2="14990.60" y2="3360" stroke="#a8a8a8" stroke-width="1"/>
<line x1="14990.60" y1="3360" x2="14990.60" y2="3376" stroke="black"/>
<text x="14990.60" y="3408" text-anchor="middle" font-family="monospace" font-size="18">42000</text>
<line x1="15344.42" y1="100" x2="15344.42" y2="3360" stroke="#a8a8a8" stroke-width="1"/>
<line x1="15344.42" y1="3360" x2="15344.42" y2="3376" stroke="black"/>
<text x="15344.42" y="3408" text-anchor="middle" font-family="monospace" font-size="18">43000</text>
<line x1="15698.25" y1="100" x2="15698.25" y2="3360" stroke="#a8a8a8" stroke-width="1"/>
<line x1="15698.25" y1="3360" x2="15698.25" y2="3376" stroke="black"/>
<text x="15698.25" y="3408" text-anchor="middle" font-family="monospace" font-size="18">44000</text>
<line x1="16052.07" y1="100" x2="16052.07" y2="3360" stroke="#a8a8a8" stroke-width="1"/>
<line x1="16052.07" y1="3360" x2="16052.07" y2="3376" stroke="black"/>
<text x="16052.07" y="3408" text-anchor="middle" font-family="monospace" font-size="18">45000</text>
<line x1="16405.90" y1="100" x2="16405.90" y2="3360" stroke="#a8a8a8" stroke-width="1"/>
<line x1="16405.90" y1="3360" x2="16405.90" y2="3376" stroke="black"/>
<text x="16405.90" y="3408" text-anchor="middle" font-family="monospace" font-size="18">46000</text>
<line x1="16759.72" y1="100" x2="16759.72" y2="3360" stroke="#a8a8a8" stroke-width="1"/>
<line x1="16759.72" y1="3360" x2="16759.72" y2="3376" stroke="black"/>
<text x="16759.72" y="3408" text-anchor="middle" font-family="monospace" font-size="18">47000</text>
<line x1="17113.54" y1="100" x2="17113.54" y2="3360" stroke="#a8a8a8" stroke-width="1"/>
<line x1="17113.54" y1="3360" x2="17113.54" y2="3376" stroke="black"/>
<text x="17113.54" y="3408" text-anchor="middle" font-family="monospace" font-size="18">48000</text>
<line x1="17467.37" y1="100" x2="17467.37" y2="3360" stroke="#a8a8a8" stroke-width="1"/>
<line x1="17467.37" y1="3360" x2="17467.37" y2="3376" stroke="black"/>
<text x="17467.37" y="3408" text-anchor="middle" font-family="monospace" font-size="18">49000</text>
<line x1="17821.19" y1="100" x2="17821.19" y2="3360" stroke="#a8a8a8" stroke-width="1"/>
<line x1="17821.19" y1="3360" x2="17821.19" y2="3376" stroke="black"/>
<text x="17821.19" y="3408" text-anchor="middle" font-family="monospace" font-size="18">50000</text>
<line x1="18175.01" y1="100" x2="18175.01" y2="3360" stroke="#a8a8a8" stroke-width="1"/>
<line x1="18175.01" y1="3360" x2="18175.01" y2="3376" stroke="black"/>
<text x="18175.01" y="3408" text-anchor="middle" font-family="monospace" font-size="18">51000</text>
<line x1="18528.84" y1="100" x2="18528.84" y2="3360" stroke="#a8a8a8" stroke-width="1"/>
<line x1="18528.84" y1="3360" x2="18528.84" y2="3376" stroke="black"/>
<text x="18528.84" y="3408" text-anchor="middle" font-family="monospace" font-size="18">52000</text>
<line x1="18882.66" y1="100" x2="18882.66" y2="3360" stroke="#a8a8a8" stroke-width="1"/>
<line x1="18882.66" y1="3360" x2="18882.66" y2="3376" stroke="black"/>
<text x="18882.66" y="3408" text-anchor="middle" font-family="monospace" font-size="18">53000</text>
<line x1="19236.49" y1="100" x2="19236.49" y2="3360" stroke="#a8a8a8" stroke-width="1"/>
<line x1="19236.49" y1="3360" x2="19236.49" y2="3376" stroke="black"/>
<text x="19236.49" y="3408" text-anchor="middle" font-family="monospace" font-size="18">54000</text>
<line x1="19590.31" y1="100" x2="19590.31" y2="3360" stroke="#a8a8a8" stroke-width="1"/>
<line x1="19590.31" y1="3360" x2="19590.31" y2="3376" stroke="black"/>
<text x="19590.31" y="3408" text-anchor="middle" font-family="monospace" font-size="18">55000</text>
<line x1="19944.13" y1="100" x2="19944.13" y2="3360" stroke="#a8a8a8" stroke-width="1"/>
<line x1="19944.13" y1="3360" x2="19944.13" y2="3376" stroke="black"/>
<text x="19944.13" y="3408" text-anchor="middle" font-family="monospace" font-size="18">56000</text>
<line x1="20297.96" y1="100" x2="20297.96" y2="3360" stroke="#a8a8a8" stroke-width="1"/>
<line x1="20297.96" y1="3360" x2="20297.96" y2="3376" stroke="black"/>
<text x="20297.96" y="3408" text-anchor="middle" font-family="monospace" font-size="18">57000</text>
<line x1="20651.78" y1="100" x2="20651.78" y2="3360" stroke="#a8a8a8" stroke-width="1"/>
<line x1="20651.78" y1="3360" x2="20651.78" y2="3376" stroke="black"/>
<text x="20651.78" y="3408" text-anchor="middle" font-family="monospace" font-size="18">58000</text>
<line x1="21005.60" y1="100" x2="21005.60" y2="3360" stroke="#a8a8a8" stroke-width="1"/>
<line x1="21005.60" y1="3360" x2="21005.60" y2="3376" stroke="black"/>
<text x="21005.60" y="3408" text-anchor="middle" font-family="monospace" font-size="18">59000</text>
<line x1="21359.43" y1="100" x2="21359.43" y2="3360" stroke="#a8a8a8" stroke-width="1"/>
<line x1="21359.43" y1="3360" x2="21359.43" y2="3376" stroke="black"/>
<text x="21359.43" y="3408" text-anchor="middle" font-family="monospace" font-size="18">60000</text>
<line x1="21713.25" y1="100" x2="21713.25" y2="3360" stroke="#a8a8a8" stroke-width="1"/>
<line x1="21713.25" y1="3360" x2="21713.25" y2="3376" stroke="black"/>
<text x="21713.25" y="3408" text-anchor="middle" font-family="monospace" font-size="18">61000</text>
<line x1="22067.08" y1="100" x2="22067.08" y2="3360" stroke="#a8a8a8" stroke-width="1"/>
<line x1="22067.08" y1="3360" x2="22067.08" y2="3376" stroke="black"/>
<text x="22067.08" y="3408" text-anchor="middle" font-family="monospace" font-size="18">62000</text>
<line x1="22420.90" y1="100" x2="22420.90" y2="3360" stroke="#a8a8a8" stroke-width="1"/>
<line x1="22420.90" y1="3360" x2="22420.90" y2="3376" stroke="black"/>
<text x="22420.90" y="3408" text-anchor="middle" font-family="monospace" font-size="18">63000</text>
<line x1="22774.72" y1="100" x2="22774.72" y2="3360" stroke="#a8a8a8" stroke-width="1"/>
<line x1="22774.72" y1="3360" x2="22774.72" y2="3376" stroke="black"/>
<text x="22774.72" y="3408" text-anchor="middle" font-family="monospace" font-size="18">64000</text>
<line x1="23128.55" y1="100" x2="23128.55" y2="3360" stroke="#a8a8a8" stroke-width="1"/>
<line x1="23128.55" y1="3360" x2="23128.55" y2="3376" stroke="black"/>
<text x="23128.55" y="3408" text-anchor="middle" font-family="monospace" font-size="18">65000</text>
<line x1="23482.37" y1="100" x2="23482.37" y2="3360" stroke="#a8a8a8" stroke-width="1"/>
<line x1="23482.37" y1="3360" x2="23482.37" y2="3376" stroke="black"/>
<text x="23482.37" y="3408" text-anchor="middle" font-family="monospace" font-size="18">66000</text>
<line x1="23836.20" y1="100" x2="23836.20" y2="3360" stroke="#a8a8a8" stroke-width="1"/>
<line x1="23836.20" y1="3360" x2="23836.20" y2="3376" stroke="black"/>
<text x="23836.20" y="3408" text-anchor="middle" font-family="monospace" font-size="18">67000</text>
<line x1="23930.00" y1="100" x2="23930.00" y2="3360" stroke="#a8a8a8" stroke-width="1"/>
<line x1="23930.00" y1="3360" x2="23930.00" y2="3376" stroke="black"/>
<text x="23930.00" y="3408" text-anchor="middle" font-family="monospace" font-size="18">68000</text>
<line x1="130" y1="3360.00" x2="23930" y2="3360.00" stroke="#dedede"/>
<text x="114" y="3366.00" text-anchor="end" font-family="monospace" font-size="18">133.16</text>
<line x1="130" y1="3197.00" x2="23930" y2="3197.00" stroke="#dedede"/>
<text x="114" y="3203.00" text-anchor="end" font-family="monospace" font-size="18">137.39</text>
<line x1="130" y1="3034.00" x2="23930" y2="3034.00" stroke="#dedede"/>
<text x="114" y="3040.00" text-anchor="end" font-family="monospace" font-size="18">141.63</text>
<line x1="130" y1="2871.00" x2="23930" y2="2871.00" stroke="#dedede"/>
<text x="114" y="2877.00" text-anchor="end" font-family="monospace" font-size="18">145.86</text>
<line x1="130" y1="2708.00" x2="23930" y2="2708.00" stroke="#dedede"/>
<text x="114" y="2714.00" text-anchor="end" font-family="monospace" font-size="18">150.10</text>
<line x1="130" y1="2545.00" x2="23930" y2="2545.00" stroke="#dedede"/>
<text x="114" y="2551.00" text-anchor="end" font-family="monospace" font-size="18">154.33</text>
<line x1="130" y1="2382.00" x2="23930" y2="2382.00" stroke="#dedede"/>
<text x="114" y="2388.00" text-anchor="end" font-family="monospace" font-size="18">158.56</text>
<line x1="130" y1="2219.00" x2="23930" y2="2219.00" stroke="#dedede"/>
<text x="114" y="2225.00" text-anchor="end" font-family="monospace" font-size="18">162.80</text>
<line x1="130" y1="2056.00" x2="23930" y2="2056.00" stroke="#dedede"/>
<text x="114" y="2062.00" text-anchor="end" font-family="monospace" font-size="18">167.03</text>
<line x1="130" y1="1893.00" x2="23930" y2="1893.00" stroke="#dedede"/>
<text x="114" y="1899.00" text-anchor="end" font-family="monospace" font-size="18">171.27</text>
<line x1="130" y1="1730.00" x2="23930" y2="1730.00" stroke="#dedede"/>
<text x="114" y="1736.00" text-anchor="end" font-family="monospace" font-size="18">175.50</text>
<line x1="130" y1="1567.00" x2="23930" y2="1567.00" stroke="#dedede"/>
<text x="114" y="1573.00" text-anchor="end" font-family="monospace" font-size="18">179.73</text>
<line x1="130" y1="1404.00" x2="23930" y2="1404.00" stroke="#dedede"/>
<text x="114" y="1410.00" text-anchor="end" font-family="monospace" font-size="18">183.97</text>
<line x1="130" y1="1241.00" x2="23930" y2="1241.00" stroke="#dedede"/>
<text x="114" y="1247.00" text-anchor="end" font-family="monospace" font-size="18">188.20</text>
<line x1="130" y1="1078.00" x2="23930" y2="1078.00" stroke="#dedede"/>
<text x="114" y="1084.00" text-anchor="end" font-family="monospace" font-size="18">192.44</text>
<line x1="130" y1="915.00" x2="23930" y2="915.00" stroke="#dedede"/>
<text x="114" y="921.00" text-anchor="end" font-family="monospace" font-size="18">196.67</text>
<line x1="130" y1="752.00" x2="23930" y2="752.00" stroke="#dedede"/>
<text x="114" y="758.00" text-anchor="end" font-family="monospace" font-size="18">200.90</text>
<line x1="130" y1="589.00" x2="23930" y2="589.00" stroke="#dedede"/>
<text x="114" y="595.00" text-anchor="end" font-family="monospace" font-size="18">205.14</text>
<line x1="130" y1="426.00" x2="23930" y2="426.00" stroke="#dedede"/>
<text x="114" y="432.00" text-anchor="end" font-family="monospace" font-size="18">209.37</text>
<line x1="130" y1="263.00" x2="23930" y2="263.00" stroke="#dedede"/>
<text x="114" y="269.00" text-anchor="end" font-family="monospace" font-size="18">213.61</text>
<line x1="130" y1="100.00" x2="23930" y2="100.00" stroke="#dedede"/>
<text x="114" y="106.00" text-anchor="end" font-family="monospace" font-size="18">217.84</text>
<line x1="130" y1="100" x2="130" y2="3360" stroke="black" stroke-width="2"/>
<line x1="130" y1="3360" x2="23930" y2="3360" stroke="black" stroke-width="2"/>
<polyline points="130.00,3135.17 483.86,2827.19 837.67,2365.21 1191.51,979.29 1545.34,709.81 1899.16,594.31 2252.98,594.31 2606.79,478.82 2960.63,478.82 3314.44,478.82 3668.26,478.82 4022.09,517.32 4375.92,786.80 4729.75,748.30 5083.57,786.80 5437.40,748.30 5791.22,709.81 6145.04,401.82 6498.85,440.32 6852.68,401.82 7206.52,401.82 7560.32,440.32 7914.15,401.82 8267.99,401.82 8621.81,401.82 8975.63,671.31 9329.46,671.31 9683.27,709.81 10037.11,748.30 10390.93,748.30 10744.74,401.82 11098.56,401.82 11452.40,401.82 11806.23,517.32 12160.05,440.32 12513.88,401.82 12867.70,401.82 13221.52,440.32 13575.34,709.81 13929.17,748.30 14282.99,748.30 14636.82,748.30 14990.64,786.80 15344.46,478.82 15698.29,401.82 16052.10,478.82 16405.94,401.82 16759.76,401.82 17113.58,401.82 17467.40,440.32 17821.23,440.32 18175.05,632.81 18528.88,748.30 18882.70,748.30 19236.52,748.30 19590.35,748.30 19944.18,517.32 20297.99,401.82 20651.80,401.82 21005.63,363.33 21359.45,324.83 21713.28,440.32 22067.10,401.82 22420.94,363.33 22774.76,1787.75 23128.59,2865.69 23482.41,3019.68 23836.24,2904.19 23930.00,3019.68" fill="none" stroke="#1f77b4" stroke-width="4"/>
<line x1="150" y1="76" x2="196" y2="76" stroke="#1f77b4" stroke-width="5"/>
<text x="208" y="83" font-family="sans-serif" font-size="20">power1</text>
<text x="12000.0" y="3462" text-anchor="middle" font-family="sans-serif" font-size="22">Elapsed time [ms] — minor tick 1000 ms, labeled tick 1000 ms</text>
<text x="36" y="1750.0" text-anchor="middle" font-family="sans-serif" font-size="22" transform="rotate(-90 36 1750.0)">Power [W]</text>
</svg>
