<svg xmlns="http://www.w3.org/2000/svg" width="1800" height="700" viewBox="0 0 1800 700">
<rect width="100%" height="100%" fill="white"/>
<text x="900.0" y="35" text-anchor="middle" font-family="sans-serif" font-size="24">GreenQUIC client power1 histogram</text>
<line x1="100" y1="70" x2="100" y2="600" stroke="black" stroke-width="2"/>
<line x1="100" y1="600" x2="1750" y2="600" stroke="black" stroke-width="2"/>
<rect x="102.00" y="522.06" width="179.33" height="77.94" fill="#d9e8f5" stroke="#1f77b4"/>
<rect x="285.33" y="522.06" width="179.33" height="77.94" fill="#d9e8f5" stroke="#1f77b4"/>
<rect x="468.67" y="381.76" width="179.33" height="218.24" fill="#d9e8f5" stroke="#1f77b4"/>
<rect x="652.00" y="506.47" width="179.33" height="93.53" fill="#d9e8f5" stroke="#1f77b4"/>
<rect x="835.33" y="553.24" width="179.33" height="46.76" fill="#d9e8f5" stroke="#1f77b4"/>
<rect x="1018.67" y="553.24" width="179.33" height="46.76" fill="#d9e8f5" stroke="#1f77b4"/>
<rect x="1202.00" y="522.06" width="179.33" height="77.94" fill="#d9e8f5" stroke="#1f77b4"/>
<rect x="1385.33" y="568.82" width="179.33" height="31.18" fill="#d9e8f5" stroke="#1f77b4"/>
<rect x="1568.67" y="70.00" width="179.33" height="530.00" fill="#d9e8f5" stroke="#1f77b4"/>
<text x="900.0" y="672" text-anchor="middle" font-family="sans-serif" font-size="17">Power [W]</text>
<text x="30" y="350.0" text-anchor="middle" font-family="sans-serif" font-size="17" transform="rotate(-90 30 350.0)">Sample count</text>
<text x="100" y="630" text-anchor="middle" font-family="monospace" font-size="14">141.00</text>
<text x="1750" y="630" text-anchor="middle" font-family="monospace" font-size="14">203.00</text>
</svg>
