<svg xmlns="http://www.w3.org/2000/svg" width="24000" height="3500" viewBox="0 0 24000 3500">
<rect width="100%" height="100%" fill="white"/>
<text x="12000.0" y="54" text-anchor="middle" font-family="sans-serif" font-size="34">GreenQUIC client RAPL power distribution — whole run</text>
<rect x="150.00" y="3345.91" width="236.70" height="4.09" fill="#1f77b4"/>
<rect x="387.70" y="3341.82" width="236.70" height="8.18" fill="#1f77b4"/>
<rect x="625.40" y="3341.82" width="236.70" height="8.18" fill="#1f77b4"/>
<rect x="863.10" y="3341.82" width="236.70" height="8.18" fill="#1f77b4"/>
<rect x="1100.80" y="3284.55" width="236.70" height="65.45" fill="#1f77b4"/>
<rect x="1338.50" y="3268.18" width="236.70" height="81.82" fill="#1f77b4"/>
<rect x="1576.20" y="3268.18" width="236.70" height="81.82" fill="#1f77b4"/>
<rect x="1813.90" y="3059.55" width="236.70" height="290.45" fill="#1f77b4"/>
<rect x="2051.60" y="3055.45" width="236.70" height="294.55" fill="#1f77b4"/>
<rect x="2289.30" y="2969.55" width="236.70" height="380.45" fill="#1f77b4"/>
<rect x="2527.00" y="2961.36" width="236.70" height="388.64" fill="#1f77b4"/>
<rect x="2764.70" y="2945.00" width="236.70" height="405.00" fill="#1f77b4"/>
<rect x="3002.40" y="2969.55" width="236.70" height="380.45" fill="#1f77b4"/>
<rect x="3240.10" y="3018.64" width="236.70" height="331.36" fill="#1f77b4"/>
<rect x="3477.80" y="3096.36" width="236.70" height="253.64" fill="#1f77b4"/>
<rect x="3715.50" y="3170.00" width="236.70" height="180.00" fill="#1f77b4"/>
<rect x="3953.20" y="3251.82" width="236.70" height="98.18" fill="#1f77b4"/>
<rect x="4190.90" y="3276.36" width="236.70" height="73.64" fill="#1f77b4"/>
<rect x="4428.60" y="3292.73" width="236.70" height="57.27" fill="#1f77b4"/>
<rect x="4666.30" y="3288.64" width="236.70" height="61.36" fill="#1f77b4"/>
<rect x="4904.00" y="3300.91" width="236.70" height="49.09" fill="#1f77b4"/>
<rect x="5141.70" y="3300.91" width="236.70" height="49.09" fill="#1f77b4"/>
<rect x="5379.40" y="3325.45" width="236.70" height="24.55" fill="#1f77b4"/>
<rect x="5617.10" y="3321.36" width="236.70" height="28.64" fill="#1f77b4"/>
<rect x="5854.80" y="3333.64" width="236.70" height="16.36" fill="#1f77b4"/>
<rect x="6092.50" y="3329.55" width="236.70" height="20.45" fill="#1f77b4"/>
<rect x="6330.20" y="3341.82" width="236.70" height="8.18" fill="#1f77b4"/>
<rect x="6567.90" y="3337.73" width="236.70" height="12.27" fill="#1f77b4"/>
<rect x="6805.60" y="3313.18" width="236.70" height="36.82" fill="#1f77b4"/>
<rect x="7043.30" y="3325.45" width="236.70" height="24.55" fill="#1f77b4"/>
<rect x="7281.00" y="3345.91" width="236.70" height="4.09" fill="#1f77b4"/>
<rect x="7518.70" y="3341.82" width="236.70" height="8.18" fill="#1f77b4"/>
<rect x="7756.40" y="3341.82" width="236.70" height="8.18" fill="#1f77b4"/>
<rect x="7994.10" y="3337.73" width="236.70" height="12.27" fill="#1f77b4"/>
<rect x="8231.80" y="3350.00" width="236.70" height="0.00" fill="#1f77b4"/>
<rect x="8469.50" y="3341.82" width="236.70" height="8.18" fill="#1f77b4"/>
<rect x="8707.20" y="3341.82" width="236.70" height="8.18" fill="#1f77b4"/>
<rect x="8944.90" y="3333.64" width="236.70" height="16.36" fill="#1f77b4"/>
<rect x="9182.60" y="3341.82" width="236.70" height="8.18" fill="#1f77b4"/>
<rect x="9420.30" y="3337.73" width="236.70" height="12.27" fill="#1f77b4"/>
<rect x="9658.00" y="3345.91" width="236.70" height="4.09" fill="#1f77b4"/>
<rect x="9895.70" y="3337.73" width="236.70" height="12.27" fill="#1f77b4"/>
<rect x="10133.40" y="3345.91" width="236.70" height="4.09" fill="#1f77b4"/>
<rect x="10371.10" y="3345.91" width="236.70" height="4.09" fill="#1f77b4"/>
<rect x="10608.80" y="3345.91" width="236.70" height="4.09" fill="#1f77b4"/>
<rect x="10846.50" y="3337.73" width="236.70" height="12.27" fill="#1f77b4"/>
<rect x="11084.20" y="3337.73" width="236.70" height="12.27" fill="#1f77b4"/>
<rect x="11321.90" y="3296.82" width="236.70" height="53.18" fill="#1f77b4"/>
<rect x="11559.60" y="3264.09" width="236.70" height="85.91" fill="#1f77b4"/>
<rect x="11797.30" y="3194.55" width="236.70" height="155.45" fill="#1f77b4"/>
<rect x="12035.00" y="3141.36" width="236.70" height="208.64" fill="#1f77b4"/>
<rect x="12272.70" y="3112.73" width="236.70" height="237.27" fill="#1f77b4"/>
<rect x="12510.40" y="3120.91" width="236.70" height="229.09" fill="#1f77b4"/>
<rect x="12748.10" y="3100.45" width="236.70" height="249.55" fill="#1f77b4"/>
<rect x="12985.80" y="3120.91" width="236.70" height="229.09" fill="#1f77b4"/>
<rect x="13223.50" y="3108.64" width="236.70" height="241.36" fill="#1f77b4"/>
<rect x="13461.20" y="3055.45" width="236.70" height="294.55" fill="#1f77b4"/>
<rect x="13698.90" y="3002.27" width="236.70" height="347.73" fill="#1f77b4"/>
<rect x="13936.60" y="3035.00" width="236.70" height="315.00" fill="#1f77b4"/>
<rect x="14174.30" y="3055.45" width="236.70" height="294.55" fill="#1f77b4"/>
<rect x="14412.00" y="3047.27" width="236.70" height="302.73" fill="#1f77b4"/>
<rect x="14649.70" y="2973.64" width="236.70" height="376.36" fill="#1f77b4"/>
<rect x="14887.40" y="2732.27" width="236.70" height="617.73" fill="#1f77b4"/>
<rect x="15125.10" y="2589.09" width="236.70" height="760.91" fill="#1f77b4"/>
<rect x="15362.80" y="2090.00" width="236.70" height="1260.00" fill="#1f77b4"/>
<rect x="15600.50" y="1656.36" width="236.70" height="1693.64" fill="#1f77b4"/>
<rect x="15838.20" y="1562.27" width="236.70" height="1787.73" fill="#1f77b4"/>
<rect x="16075.90" y="1541.82" width="236.70" height="1808.18" fill="#1f77b4"/>
<rect x="16313.60" y="1664.55" width="236.70" height="1685.45" fill="#1f77b4"/>
<rect x="16551.30" y="1721.82" width="236.70" height="1628.18" fill="#1f77b4"/>
<rect x="16789.00" y="1537.73" width="236.70" height="1812.27" fill="#1f77b4"/>
<rect x="17026.70" y="1116.36" width="236.70" height="2233.64" fill="#1f77b4"/>
<rect x="17264.40" y="760.45" width="236.70" height="2589.55" fill="#1f77b4"/>
<rect x="17502.10" y="470.00" width="236.70" height="2880.00" fill="#1f77b4"/>
<rect x="17739.80" y="110.00" width="236.70" height="3240.00" fill="#1f77b4"/>
<rect x="17977.50" y="359.55" width="236.70" height="2990.45" fill="#1f77b4"/>
<rect x="18215.20" y="825.91" width="236.70" height="2524.09" fill="#1f77b4"/>
<rect x="18452.90" y="1468.18" width="236.70" height="1881.82" fill="#1f77b4"/>
<rect x="18690.60" y="2024.55" width="236.70" height="1325.45" fill="#1f77b4"/>
<rect x="18928.30" y="2601.36" width="236.70" height="748.64" fill="#1f77b4"/>
<rect x="19166.00" y="2773.18" width="236.70" height="576.82" fill="#1f77b4"/>
<rect x="19403.70" y="2977.73" width="236.70" height="372.27" fill="#1f77b4"/>
<rect x="19641.40" y="3039.09" width="236.70" height="310.91" fill="#1f77b4"/>
<rect x="19879.10" y="3165.91" width="236.70" height="184.09" fill="#1f77b4"/>
<rect x="20116.80" y="3190.45" width="236.70" height="159.55" fill="#1f77b4"/>
<rect x="20354.50" y="3178.18" width="236.70" height="171.82" fill="#1f77b4"/>
<rect x="20592.20" y="3190.45" width="236.70" height="159.55" fill="#1f77b4"/>
<rect x="20829.90" y="3190.45" width="236.70" height="159.55" fill="#1f77b4"/>
<rect x="21067.60" y="3161.82" width="236.70" height="188.18" fill="#1f77b4"/>
<rect x="21305.30" y="3149.55" width="236.70" height="200.45" fill="#1f77b4"/>
<rect x="21543.00" y="3088.18" width="236.70" height="261.82" fill="#1f77b4"/>
<rect x="21780.70" y="3100.45" width="236.70" height="249.55" fill="#1f77b4"/>
<rect x="22018.40" y="3120.91" width="236.70" height="229.09" fill="#1f77b4"/>
<rect x="22256.10" y="3198.64" width="236.70" height="151.36" fill="#1f77b4"/>
<rect x="22493.80" y="3264.09" width="236.70" height="85.91" fill="#1f77b4"/>
<rect x="22731.50" y="3284.55" width="236.70" height="65.45" fill="#1f77b4"/>
<rect x="22969.20" y="3329.55" width="236.70" height="20.45" fill="#1f77b4"/>
<rect x="23206.90" y="3333.64" width="236.70" height="16.36" fill="#1f77b4"/>
<rect x="23444.60" y="3333.64" width="236.70" height="16.36" fill="#1f77b4"/>
<rect x="23682.30" y="3345.91" width="236.70" height="4.09" fill="#1f77b4"/>
<line x1="150" y1="110" x2="150" y2="3350" stroke="black" stroke-width="2"/>
<line x1="150" y1="3350" x2="23920" y2="3350" stroke="black" stroke-width="2"/>
<text x="150" y="3398" text-anchor="middle" font-family="monospace" font-size="20">41.88</text>
<text x="23920" y="3398" text-anchor="middle" font-family="monospace" font-size="20">140.92</text>
<text x="12000.0" y="3458" text-anchor="middle" font-family="sans-serif" font-size="24">Smoothed package + DRAM power [W]</text>
<text x="42" y="1750.0" text-anchor="middle" font-family="sans-serif" font-size="24" transform="rotate(-90 42 1750.0)">Sample count</text>
</svg>
