<svg xmlns="http://www.w3.org/2000/svg" width="24000" height="3500" viewBox="0 0 24000 3500">
<rect width="100%" height="100%" fill="white"/>
<text x="12000.0" y="54" text-anchor="middle" font-family="sans-serif" font-size="34">GreenQUIC server RAPL power distribution — whole run</text>
<rect x="150.00" y="3340.96" width="236.70" height="9.04" fill="#1f77b4"/>
<rect x="387.70" y="3350.00" width="236.70" height="0.00" fill="#1f77b4"/>
<rect x="625.40" y="3350.00" width="236.70" height="0.00" fill="#1f77b4"/>
<rect x="863.10" y="3350.00" width="236.70" height="0.00" fill="#1f77b4"/>
<rect x="1100.80" y="3336.44" width="236.70" height="13.56" fill="#1f77b4"/>
<rect x="1338.50" y="3340.96" width="236.70" height="9.04" fill="#1f77b4"/>
<rect x="1576.20" y="3336.44" width="236.70" height="13.56" fill="#1f77b4"/>
<rect x="1813.90" y="3350.00" width="236.70" height="0.00" fill="#1f77b4"/>
<rect x="2051.60" y="3336.44" width="236.70" height="13.56" fill="#1f77b4"/>
<rect x="2289.30" y="3340.96" width="236.70" height="9.04" fill="#1f77b4"/>
<rect x="2527.00" y="3331.92" width="236.70" height="18.08" fill="#1f77b4"/>
<rect x="2764.70" y="3336.44" width="236.70" height="13.56" fill="#1f77b4"/>
<rect x="3002.40" y="3331.92" width="236.70" height="18.08" fill="#1f77b4"/>
<rect x="3240.10" y="3304.81" width="236.70" height="45.19" fill="#1f77b4"/>
<rect x="3477.80" y="3309.33" width="236.70" height="40.67" fill="#1f77b4"/>
<rect x="3715.50" y="3277.70" width="236.70" height="72.30" fill="#1f77b4"/>
<rect x="3953.20" y="3291.26" width="236.70" height="58.74" fill="#1f77b4"/>
<rect x="4190.90" y="3232.51" width="236.70" height="117.49" fill="#1f77b4"/>
<rect x="4428.60" y="3137.62" width="236.70" height="212.38" fill="#1f77b4"/>
<rect x="4666.30" y="3110.50" width="236.70" height="239.50" fill="#1f77b4"/>
<rect x="4904.00" y="3051.76" width="236.70" height="298.24" fill="#1f77b4"/>
<rect x="5141.70" y="2875.52" width="236.70" height="474.48" fill="#1f77b4"/>
<rect x="5379.40" y="2812.26" width="236.70" height="537.74" fill="#1f77b4"/>
<rect x="5617.10" y="2726.40" width="236.70" height="623.60" fill="#1f77b4"/>
<rect x="5854.80" y="2617.95" width="236.70" height="732.05" fill="#1f77b4"/>
<rect x="6092.50" y="2405.56" width="236.70" height="944.44" fill="#1f77b4"/>
<rect x="6330.20" y="2247.41" width="236.70" height="1102.59" fill="#1f77b4"/>
<rect x="6567.90" y="1989.83" width="236.70" height="1360.17" fill="#1f77b4"/>
<rect x="6805.60" y="1867.82" width="236.70" height="1482.18" fill="#1f77b4"/>
<rect x="7043.30" y="1583.14" width="236.70" height="1766.86" fill="#1f77b4"/>
<rect x="7281.00" y="1339.12" width="236.70" height="2010.88" fill="#1f77b4"/>
<rect x="7518.70" y="1126.74" width="236.70" height="2223.26" fill="#1f77b4"/>
<rect x="7756.40" y="1022.80" width="236.70" height="2327.20" fill="#1f77b4"/>
<rect x="7994.10" y="914.35" width="236.70" height="2435.65" fill="#1f77b4"/>
<rect x="8231.80" y="503.14" width="236.70" height="2846.86" fill="#1f77b4"/>
<rect x="8469.50" y="390.17" width="236.70" height="2959.83" fill="#1f77b4"/>
<rect x="8707.20" y="354.02" width="236.70" height="2995.98" fill="#1f77b4"/>
<rect x="8944.90" y="110.00" width="236.70" height="3240.00" fill="#1f77b4"/>
<rect x="9182.60" y="363.05" width="236.70" height="2986.95" fill="#1f77b4"/>
<rect x="9420.30" y="281.72" width="236.70" height="3068.28" fill="#1f77b4"/>
<rect x="9658.00" y="263.64" width="236.70" height="3086.36" fill="#1f77b4"/>
<rect x="9895.70" y="227.49" width="236.70" height="3122.51" fill="#1f77b4"/>
<rect x="10133.40" y="236.53" width="236.70" height="3113.47" fill="#1f77b4"/>
<rect x="10371.10" y="290.75" width="236.70" height="3059.25" fill="#1f77b4"/>
<rect x="10608.80" y="204.90" width="236.70" height="3145.10" fill="#1f77b4"/>
<rect x="10846.50" y="417.28" width="236.70" height="2932.72" fill="#1f77b4"/>
<rect x="11084.20" y="530.25" width="236.70" height="2819.75" fill="#1f77b4"/>
<rect x="11321.90" y="1000.21" width="236.70" height="2349.79" fill="#1f77b4"/>
<rect x="11559.60" y="1018.28" width="236.70" height="2331.72" fill="#1f77b4"/>
<rect x="11797.30" y="1429.50" width="236.70" height="1920.50" fill="#1f77b4"/>
<rect x="12035.00" y="1944.64" width="236.70" height="1405.36" fill="#1f77b4"/>
<rect x="12272.70" y="2147.99" width="236.70" height="1202.01" fill="#1f77b4"/>
<rect x="12510.40" y="2509.50" width="236.70" height="840.50" fill="#1f77b4"/>
<rect x="12748.10" y="2586.32" width="236.70" height="763.68" fill="#1f77b4"/>
<rect x="12985.80" y="2812.26" width="236.70" height="537.74" fill="#1f77b4"/>
<rect x="13223.50" y="3015.61" width="236.70" height="334.39" fill="#1f77b4"/>
<rect x="13461.20" y="3115.02" width="236.70" height="234.98" fill="#1f77b4"/>
<rect x="13698.90" y="3151.17" width="236.70" height="198.83" fill="#1f77b4"/>
<rect x="13936.60" y="3209.92" width="236.70" height="140.08" fill="#1f77b4"/>
<rect x="14174.30" y="3264.14" width="236.70" height="85.86" fill="#1f77b4"/>
<rect x="14412.00" y="3273.18" width="236.70" height="76.82" fill="#1f77b4"/>
<rect x="14649.70" y="3327.41" width="236.70" height="22.59" fill="#1f77b4"/>
<rect x="14887.40" y="3313.85" width="236.70" height="36.15" fill="#1f77b4"/>
<rect x="15125.10" y="3313.85" width="236.70" height="36.15" fill="#1f77b4"/>
<rect x="15362.80" y="3322.89" width="236.70" height="27.11" fill="#1f77b4"/>
<rect x="15600.50" y="3295.77" width="236.70" height="54.23" fill="#1f77b4"/>
<rect x="15838.20" y="3327.41" width="236.70" height="22.59" fill="#1f77b4"/>
<rect x="16075.90" y="3318.37" width="236.70" height="31.63" fill="#1f77b4"/>
<rect x="16313.60" y="3318.37" width="236.70" height="31.63" fill="#1f77b4"/>
<rect x="16551.30" y="3309.33" width="236.70" height="40.67" fill="#1f77b4"/>
<rect x="16789.00" y="3309.33" width="236.70" height="40.67" fill="#1f77b4"/>
<rect x="17026.70" y="3322.89" width="236.70" height="27.11" fill="#1f77b4"/>
<rect x="17264.40" y="3322.89" width="236.70" height="27.11" fill="#1f77b4"/>
<rect x="17502.10" y="3331.92" width="236.70" height="18.08" fill="#1f77b4"/>
<rect x="17739.80" y="3327.41" width="236.70" height="22.59" fill="#1f77b4"/>
<rect x="17977.50" y="3336.44" width="236.70" height="13.56" fill="#1f77b4"/>
<rect x="18215.20" y="3331.92" width="236.70" height="18.08" fill="#1f77b4"/>
<rect x="18452.90" y="3345.48" width="236.70" height="4.52" fill="#1f77b4"/>
<rect x="18690.60" y="3322.89" width="236.70" height="27.11" fill="#1f77b4"/>
<rect x="18928.30" y="3336.44" width="236.70" height="13.56" fill="#1f77b4"/>
<rect x="19166.00" y="3327.41" width="236.70" height="22.59" fill="#1f77b4"/>
<rect x="19403.70" y="3327.41" width="236.70" height="22.59" fill="#1f77b4"/>
<rect x="19641.40" y="3350.00" width="236.70" height="0.00" fill="#1f77b4"/>
<rect x="19879.10" y="3340.96" width="236.70" height="9.04" fill="#1f77b4"/>
<rect x="20116.80" y="3340.96" width="236.70" height="9.04" fill="#1f77b4"/>
<rect x="20354.50" y="3336.44" width="236.70" height="13.56" fill="#1f77b4"/>
<rect x="20592.20" y="3336.44" width="236.70" height="13.56" fill="#1f77b4"/>
<rect x="20829.90" y="3350.00" width="236.70" height="0.00" fill="#1f77b4"/>
<rect x="21067.60" y="3350.00" width="236.70" height="0.00" fill="#1f77b4"/>
<rect x="21305.30" y="3345.48" width="236.70" height="4.52" fill="#1f77b4"/>
<rect x="21543.00" y="3345.48" width="236.70" height="4.52" fill="#1f77b4"/>
<rect x="21780.70" y="3345.48" width="236.70" height="4.52" fill="#1f77b4"/>
<rect x="22018.40" y="3336.44" width="236.70" height="13.56" fill="#1f77b4"/>
<rect x="22256.10" y="3331.92" width="236.70" height="18.08" fill="#1f77b4"/>
<rect x="22493.80" y="3350.00" width="236.70" height="0.00" fill="#1f77b4"/>
<rect x="22731.50" y="3350.00" width="236.70" height="0.00" fill="#1f77b4"/>
<rect x="22969.20" y="3350.00" width="236.70" height="0.00" fill="#1f77b4"/>
<rect x="23206.90" y="3350.00" width="236.70" height="0.00" fill="#1f77b4"/>
<rect x="23444.60" y="3350.00" width="236.70" height="0.00" fill="#1f77b4"/>
<rect x="23682.30" y="3345.48" width="236.70" height="4.52" fill="#1f77b4"/>
<line x1="150" y1="110" x2="150" y2="3350" stroke="black" stroke-width="2"/>
<line x1="150" y1="3350" x2="23920" y2="3350" stroke="black" stroke-width="2"/>
<text x="150" y="3398" text-anchor="middle" font-family="monospace" font-size="20">96.43</text>
<text x="23920" y="3398" text-anchor="middle" font-family="monospace" font-size="20">160.15</text>
<text x="12000.0" y="3458" text-anchor="middle" font-family="sans-serif" font-size="24">Smoothed package + DRAM power [W]</text>
<text x="42" y="1750.0" text-anchor="middle" font-family="sans-serif" font-size="24" transform="rotate(-90 42 1750.0)">Sample count</text>
</svg>
